<svg width="189" height="37" viewBox="0 0 189 37" fill="none" xmlns="http://www.w3.org/2000/svg">
<rect x="1.01074" y="4.92508" width="32" height="1.63158" rx="0.815789" fill="#E35487" stroke="black"/>
<rect x="1.01074" y="9.4514" width="32" height="1.63158" rx="0.815789" fill="#E35487" stroke="black"/>
<rect x="1.01074" y="14.083" width="32" height="1.63158" rx="0.815789" fill="#E35487" stroke="black"/>
<path d="M22.2027 7.04605C22.0864 7.2334 21.9969 7.41282 21.928 7.57852C21.4565 6.63238 20.1758 5.24315 16.6966 4.67821C17.15 4.60686 17.5697 4.52173 17.9582 4.42509C17.5697 4.32845 17.15 4.24331 16.6966 4.17196C15.852 4.30912 14.8777 4.3977 13.7539 4.41954L30.3973 4.43677L30.4222 4.41409C29.3947 4.38527 28.4957 4.29966 27.709 4.17191C27.2556 4.24326 26.836 4.32838 26.4475 4.42501M22.2027 7.04605C22.3189 7.2334 22.4085 7.41282 22.4774 7.57851C22.9489 6.63236 24.2297 5.24307 27.709 4.67816C27.2556 4.6068 26.836 4.52166 26.4475 4.42501M22.2027 7.04605C22.3876 6.74798 22.64 6.42986 22.9839 6.11499C23.6995 5.45974 24.7892 4.83751 26.4475 4.42501M22.2027 7.04605L26.4475 4.42501M22.4774 1.27149C22.2028 0.720498 22.2027 0.319824 22.2027 0.319824C22.2027 0.319824 22.2026 0.720514 21.9281 1.27153C21.997 1.43721 22.0865 1.61663 22.2028 1.80397C22.319 1.61661 22.4086 1.43719 22.4774 1.27149Z" fill="#E35487" stroke="black"/>
</svg>
