<svg width="168" height="168" viewBox="0 0 168 168" fill="none" xmlns="http://www.w3.org/2000/svg">
<path d="M117.127 84C117.127 107.149 113.37 128.083 107.314 143.211C104.285 150.777 100.691 156.866 96.7264 161.055C92.7624 165.244 88.4619 167.5 84.0007 167.5C79.5395 167.5 75.239 165.244 71.2749 161.055C67.3098 156.866 63.716 150.777 60.6874 143.211C54.6313 128.083 50.8743 107.149 50.8743 84C50.8743 60.8514 54.6313 39.9173 60.6874 24.7889C63.716 17.2232 67.3098 11.1342 71.2749 6.94483C75.239 2.75649 79.5395 0.5 84.0007 0.5C88.4619 0.5 92.7624 2.75649 96.7264 6.94483C100.691 11.1342 104.285 17.2232 107.314 24.7889C113.37 39.9173 117.127 60.8514 117.127 84Z" stroke="black"/>
<path d="M99.3262 52.0045C118.183 62.6987 133.497 75.9919 143.02 88.8179C152.572 101.684 156.179 113.903 152.023 122.578C147.867 131.254 136.596 135.035 121.433 133.883C106.316 132.735 87.5301 126.689 68.6738 115.995C49.8175 105.301 34.503 92.0074 24.9803 79.1814C15.4279 66.3154 11.8214 54.0967 15.9772 45.4212C20.1329 36.7457 31.4036 32.9644 46.5674 34.116C61.6842 35.264 80.4699 41.3104 99.3262 52.0045Z" stroke="black"/>
<path d="M143.639 128.8C143.639 134.158 139.657 138.427 134.832 138.427C130.006 138.427 126.024 134.158 126.024 128.8C126.024 123.443 130.006 119.173 134.832 119.173C139.657 119.173 143.639 123.443 143.639 128.8Z" fill="#E35487" stroke="black"/>
<path d="M109.901 12.3376C109.901 17.6951 105.919 21.9647 101.094 21.9647C96.2686 21.9647 92.2866 17.6951 92.2866 12.3376C92.2866 6.98005 96.2686 2.71042 101.094 2.71042C105.919 2.71042 109.901 6.98005 109.901 12.3376Z" fill="#E35487" stroke="black"/>
<path d="M100.593 82.5948C100.593 93.1958 92.7049 101.716 83.0608 101.716C73.4167 101.716 65.5282 93.1958 65.5282 82.5948C65.5282 71.9938 73.4167 63.4734 83.0608 63.4734C92.7049 63.4734 100.593 71.9938 100.593 82.5948Z" fill="#E35487" stroke="black"/>
<path d="M88.959 72.4675C88.959 75.3781 86.8 77.664 84.2237 77.664C81.6474 77.664 79.4884 75.3781 79.4884 72.4675C79.4884 69.557 81.6474 67.271 84.2237 67.271C86.8 67.271 88.959 69.557 88.959 72.4675Z" fill="#E35487" stroke="black"/>
</svg>
