<svg width="169" height="169" viewBox="0 0 169 169" fill="none" xmlns="http://www.w3.org/2000/svg">
<path d="M0.544037 35.1801L0.545232 35.1572L0.54433 35.1343C0.522307 34.5753 0.5084 34.0166 0.502772 33.4583L0.674851 33.4799L0.735875 32.9821C2.94694 14.9477 20.5264 0.806 42.0008 0.806C64.8894 0.806 83.3422 16.8639 83.4998 36.5851H84.4997C84.6574 16.8639 103.11 0.806061 125.999 0.806061C148.986 0.806061 167.499 17.0024 167.499 36.8405C167.499 37.1414 167.494 37.4415 167.486 37.7408L167.471 38.2549H167.498C167.271 68.4856 146.52 95.8333 125.655 115.709C115.177 125.691 104.697 133.762 96.8356 139.339C92.9054 142.127 89.6308 144.29 87.3398 145.756C86.1943 146.489 85.2948 147.048 84.6823 147.423C84.4012 147.595 84.1806 147.728 84.0243 147.822C83.8949 147.729 83.719 147.602 83.4991 147.443C82.9818 147.067 82.2208 146.51 81.2476 145.781C79.3012 144.324 76.5062 142.184 73.1146 139.454C66.3309 133.995 57.1633 126.179 47.6276 116.753C28.5368 97.8837 8.04708 72.6372 2.1637 46.979L2.15821 46.9551L2.1504 46.9318C1.07649 43.7297 0.500767 40.3437 0.500767 36.8404C0.500767 36.2839 0.515296 35.7303 0.544037 35.1801Z" fill="#E35487" stroke="black"/>
<path d="M116.951 98.8369C103.865 67.6826 66.813 57.9386 46.9531 62.216L53.7225 76.5932C66.0775 73.6837 93.3817 76.1076 108.189 107.555C121.276 135.351 153.805 137.939 167.912 133.286L162.045 120.826C162.045 120.826 130.036 129.991 116.951 98.8369Z" fill="#E35487" stroke="black"/>
<path d="M109.29 107.163C96.2049 76.0082 59.1525 66.2642 39.2926 70.5417L46.062 84.9188C58.417 82.0094 85.7212 84.4333 100.528 115.881C113.616 143.676 146.144 146.265 160.251 141.611L154.385 129.151C154.385 129.151 122.375 138.317 109.29 107.163Z" fill="#E35487" stroke="black"/>
<path d="M145.955 27.7536C145.955 35.1367 139.05 41.2363 130.381 41.2363C121.712 41.2363 114.806 35.1367 114.806 27.7536C114.806 20.3706 121.712 14.271 130.381 14.271C139.05 14.271 145.955 20.3706 145.955 27.7536Z" fill="#E35487" stroke="black"/>
</svg>
