<svg width="168" height="168" viewBox="0 0 168 168" fill="none" xmlns="http://www.w3.org/2000/svg">
<path d="M82.4273 167.303L2.80944 89.8715L162.045 89.8715L82.4273 167.303Z" fill="#E35487" stroke="black"/>
<path d="M107.615 46.0222L165.841 91.0933L1.46277 91.0933L59.6886 46.0222L107.615 46.0222Z" fill="#E35487" stroke="black"/>
<path d="M50.3538 90.5558L60.0269 45.7298" stroke="black"/>
<path d="M82.4292 167.341L50.1628 91.126H3.32465L82.4292 167.341Z" fill="#E35487" stroke="black" stroke-linecap="round"/>
<path d="M82.7849 167.341L115.051 91.126H161.889L82.7849 167.341Z" fill="#E35487" stroke="black" stroke-linecap="round"/>
<path d="M140.697 3.18855L118.187 45.9364L117.969 46.352L118.37 46.5963L163.697 74.2073L111.534 55.951L111.222 55.8422L111 56.0851L76.7238 93.4838L99.2336 50.736L99.4525 50.3204L99.0513 50.076L53.7241 22.465L105.887 40.7213L106.199 40.8302L106.421 40.5872L140.697 3.18855Z" fill="#E35487" stroke="black"/>
<path d="M118.187 45.9364L118.01 46.273L118.002 46.2682L138.936 6.51306L138.155 5.96288L140.697 3.18855L118.187 45.9364ZM99.4109 50.3994L99.4187 50.4041L78.4848 90.1593L79.2665 90.7094L76.7238 93.4838L99.2336 50.736L99.4109 50.3994ZM160.184 72.9779L160.519 72.2712L163.697 74.2073L160.184 72.9779ZM53.7241 22.465L57.2368 23.6944L56.9024 24.4011L53.7241 22.465Z" fill="black" stroke="black"/>
</svg>
