<svg width="46" height="46" viewBox="0 0 46 46" fill="none" xmlns="http://www.w3.org/2000/svg">
<path d="M23.0135 4.1426C29.1624 4.1426 29.8906 4.16957 32.3088 4.2774C34.5562 4.37624 35.7697 4.75367 36.5789 5.06818C37.6486 5.48154 38.4218 5.98477 39.2218 6.78453C40.0309 7.59329 40.5253 8.35711 40.9389 9.42646C41.2535 10.2352 41.631 11.4573 41.7299 13.6949C41.8378 16.1211 41.8648 16.849 41.8648 22.9866C41.8648 29.1331 41.8378 29.8609 41.7299 32.2782C41.631 34.5248 41.2535 35.7379 40.9389 36.5466C40.5253 37.616 40.0219 38.3888 39.2218 39.1886C38.4127 39.9973 37.6486 40.4916 36.5789 40.9049C35.7697 41.2194 34.5472 41.5968 32.3088 41.6957C29.8816 41.8035 29.1534 41.8304 23.0135 41.8304C16.8646 41.8304 16.1364 41.8035 13.7182 41.6957C11.4708 41.5968 10.2572 41.2194 9.44811 40.9049C8.37834 40.4916 7.60523 39.9883 6.80516 39.1886C5.99609 38.3798 5.50166 37.616 5.08813 36.5466C4.7735 35.7379 4.39594 34.5158 4.29705 32.2782C4.18917 29.852 4.16221 29.1241 4.16221 22.9866C4.16221 16.8401 4.18917 16.1122 4.29705 13.6949C4.39594 11.4483 4.7735 10.2352 5.08813 9.42646C5.50166 8.35711 6.00508 7.5843 6.80516 6.78453C7.61423 5.97578 8.37834 5.48154 9.44811 5.06818C10.2572 4.75367 11.4798 4.37624 13.7182 4.2774C16.1364 4.16957 16.8646 4.1426 23.0135 4.1426ZM23.0135 0C16.7657 0 15.9836 0.0269584 13.5294 0.134792C11.0842 0.242626 9.40316 0.638016 7.94684 1.20414C6.4276 1.79723 5.14207 2.57902 3.86554 3.86404C2.58003 5.14007 1.79793 6.42509 1.20461 7.93476C0.638264 9.3995 0.24272 11.0709 0.134844 13.5151C0.0269689 15.9773 0 16.7592 0 23.0045C0 29.2498 0.0269689 30.0317 0.134844 32.4849C0.24272 34.9291 0.638264 36.6096 1.20461 38.0653C1.79793 39.5839 2.58003 40.8689 3.86554 42.145C5.14207 43.421 6.4276 44.2118 7.93786 44.7959C9.40316 45.362 11.0752 45.7574 13.5204 45.8652C15.9746 45.9731 16.7567 46 23.0045 46C29.2523 46 30.0344 45.9731 32.4886 45.8652C34.9338 45.7574 36.6148 45.362 38.0711 44.7959C39.5813 44.2118 40.8669 43.421 42.1434 42.145C43.42 40.8689 44.2111 39.5839 44.7953 38.0743C45.3618 36.6096 45.7573 34.9381 45.8652 32.4939C45.9731 30.0406 46 29.2589 46 23.0135C46 16.7682 45.9731 15.9863 45.8652 13.5332C45.7573 11.0889 45.3618 9.40849 44.7953 7.95273C44.229 6.42508 43.4469 5.14007 42.1614 3.86404C40.8849 2.58801 39.5994 1.79723 38.0891 1.21312C36.6238 0.647002 34.9517 0.251612 32.5065 0.143778C30.0434 0.0269584 29.2612 0 23.0135 0Z" fill="#F55E94"/>
<path d="M23.0134 11.188C16.487 11.188 11.1921 16.4809 11.1921 23.0048C11.1921 29.5287 16.487 34.8216 23.0134 34.8216C29.54 34.8216 34.8348 29.5287 34.8348 23.0048C34.8348 16.4809 29.54 11.188 23.0134 11.188ZM23.0134 30.67C18.7793 30.67 15.3452 27.2373 15.3452 23.0048C15.3452 18.7723 18.7793 15.3396 23.0134 15.3396C27.2475 15.3396 30.6816 18.7723 30.6816 23.0048C30.6816 27.2373 27.2475 30.67 23.0134 30.67Z" fill="#F55E94"/>
<path d="M38.0622 10.7204C38.0622 12.248 36.8215 13.4791 35.3023 13.4791C33.7741 13.4791 32.5424 12.2391 32.5424 10.7204C32.5424 9.19277 33.7831 7.96167 35.3023 7.96167C36.8215 7.96167 38.0622 9.20175 38.0622 10.7204Z" fill="#F55E94"/>
</svg>
