<svg width="49" height="49" viewBox="0 0 49 49" fill="none" xmlns="http://www.w3.org/2000/svg">
<rect x="0.940308" y="0.42749" width="47.2619" height="47.7035" rx="23.631" transform="rotate(0.611037 0.940308 0.42749)" fill="#F0BFD4"/>
<path fill-rule="evenodd" clip-rule="evenodd" d="M11.3851 24.1404C18.3059 21.1846 22.9206 19.2365 25.2293 18.2961C31.8208 15.6112 33.1895 15.1471 34.0784 15.1408C34.2739 15.1394 34.7105 15.193 34.9911 15.4279C35.2281 15.6262 35.291 15.8914 35.3205 16.0774C35.35 16.2633 35.3847 16.6866 35.35 17.0167C34.9542 20.7842 33.3179 29.9198 32.49 34.1353C32.1397 35.9191 31.4811 36.5114 30.8491 36.5633C29.4755 36.6762 28.4446 35.6223 27.125 34.7287C25.0599 33.3305 23.8942 32.4614 21.8898 31.0972C19.5733 29.5205 21.0948 28.6838 22.4392 27.3041C22.7911 26.9431 28.8963 21.4568 29.0187 20.9546C29.034 20.8917 29.0501 20.6571 28.9132 20.5317C28.7764 20.4063 28.572 20.4465 28.4245 20.4786C28.2154 20.5242 24.8694 22.7052 18.3865 27.0218C17.4364 27.6653 16.5789 27.9747 15.8137 27.9498C14.9702 27.9224 13.3522 27.442 12.15 27.0333C10.6753 26.532 9.50195 26.2628 9.61315 25.4393C9.67108 25.0104 10.2617 24.5774 11.3851 24.1404Z" fill="#F55E94"/>
</svg>
