<svg width="50" height="50" viewBox="0 0 50 50" fill="none" xmlns="http://www.w3.org/2000/svg">
<rect width="50" height="50" rx="25" fill="#F0BFD4"/>
<path d="M9.83539 39.5448L11.979 31.7607C10.6537 29.4759 9.9585 26.8884 9.96574 24.2433C9.96574 15.9546 16.7442 9.21558 25.0652 9.21558C29.1062 9.21558 32.9009 10.7796 35.747 13.6194C38.6003 16.4591 40.1718 20.2359 40.1646 24.2505C40.1646 32.5391 33.3862 39.2781 25.0579 39.2781H25.0507C22.5233 39.2781 20.0393 38.6439 17.8305 37.4474L9.83539 39.5448ZM18.2143 34.7302L18.6705 35.0041C20.5969 36.1429 22.8057 36.7411 25.0579 36.7483H25.0652C31.9812 36.7483 37.6154 31.1481 37.6154 24.2577C37.6154 20.9206 36.3119 17.7853 33.9438 15.4212C31.5757 13.0572 28.4182 11.7598 25.0652 11.7598C18.1491 11.7526 12.5149 17.3529 12.5149 24.2433C12.5149 26.6001 13.1739 28.8993 14.434 30.8886L14.7309 31.3643L13.4636 35.9699L18.2143 34.7302Z" fill="white"/>
<path d="M10.3641 39.0186L12.4353 31.5012C11.1534 29.3029 10.4799 26.8019 10.4799 24.2504C10.4872 16.2501 17.0267 9.7417 25.0652 9.7417C28.9686 9.7417 32.6258 11.2553 35.3777 13.9941C38.1296 16.733 39.6432 20.38 39.6432 24.2576C39.6432 32.258 33.0965 38.7664 25.0652 38.7664H25.058C22.6174 38.7664 20.2203 38.1537 18.0912 37.0005L10.3641 39.0186Z" fill="#F55E94"/>
<path d="M9.83539 39.5448L11.979 31.7607C10.6537 29.4759 9.9585 26.8884 9.96574 24.2433C9.96574 15.9546 16.7442 9.21558 25.0652 9.21558C29.1062 9.21558 32.9009 10.7796 35.747 13.6194C38.6003 16.4591 40.1718 20.2359 40.1646 24.2505C40.1646 32.5391 33.3862 39.2781 25.0579 39.2781H25.0507C22.5233 39.2781 20.0393 38.6439 17.8305 37.4474L9.83539 39.5448ZM18.2143 34.7302L18.6705 35.0041C20.5969 36.1429 22.8057 36.7411 25.0579 36.7483H25.0652C31.9812 36.7483 37.6154 31.1481 37.6154 24.2577C37.6154 20.9206 36.3119 17.7853 33.9438 15.4212C31.5757 13.0572 28.4182 11.7598 25.0652 11.7598C18.1491 11.7526 12.5149 17.3529 12.5149 24.2433C12.5149 26.6001 13.1739 28.8993 14.434 30.8886L14.7309 31.3643L13.4636 35.9699L18.2143 34.7302Z" fill="#F55E94"/>
<path fill-rule="evenodd" clip-rule="evenodd" d="M21.292 17.9584C21.0096 17.3313 20.7127 17.3169 20.4447 17.3097C20.2275 17.3025 19.974 17.3025 19.7205 17.3025C19.4671 17.3025 19.0615 17.3962 18.7139 17.771C18.3663 18.1458 17.3959 19.0539 17.3959 20.9062C17.3959 22.7514 18.7501 24.5388 18.9384 24.7911C19.1267 25.0434 21.5527 28.957 25.3837 30.4634C28.5702 31.7175 29.2219 31.4653 29.9099 31.4004C30.5979 31.3355 32.1404 30.4922 32.4591 29.6129C32.7705 28.7336 32.7705 27.984 32.6763 27.8255C32.5822 27.6669 32.3287 27.5732 31.9522 27.3858C31.5756 27.1984 29.7216 26.2903 29.374 26.1605C29.0264 26.038 28.7729 25.9731 28.5267 26.3479C28.2733 26.7227 27.5491 27.566 27.3318 27.8183C27.1145 28.0705 26.89 28.0994 26.5135 27.912C26.1369 27.7246 24.9202 27.3281 23.4791 26.0452C22.3566 25.0506 21.5962 23.8181 21.3789 23.4433C21.1617 23.0685 21.3572 22.8667 21.5455 22.6793C21.7121 22.5135 21.9221 22.2396 22.1104 22.0234C22.2987 21.8072 22.3638 21.6486 22.487 21.3964C22.6101 21.1441 22.5521 20.9279 22.458 20.7405C22.3638 20.5603 21.6252 18.7007 21.292 17.9584Z" fill="white"/>
</svg>
